<svg width="186" height="115" viewBox="0 0 186 115" fill="none" xmlns="http://www.w3.org/2000/svg">
<path fill-rule="evenodd" clip-rule="evenodd" d="M155.457 105.971C156.148 105.728 156.876 105.404 157.437 104.936C158.103 104.379 158.373 103.662 158.555 102.908C158.789 101.938 158.882 100.906 159.165 99.9349C159.27 99.5741 159.472 99.438 159.558 99.3772C159.777 99.2245 159.998 99.1835 160.207 99.1987C160.453 99.2166 160.792 99.3091 161.015 99.7175C161.046 99.7763 161.088 99.8655 161.116 99.9877C161.136 100.077 161.149 100.357 161.171 100.473C161.224 100.757 161.269 101.042 161.311 101.327C161.452 102.279 161.532 103.088 161.975 103.962C162.576 105.149 163.178 105.875 163.994 106.197C164.784 106.508 165.728 106.45 166.934 106.206C167.049 106.178 167.163 106.154 167.275 106.135C167.806 106.043 168.315 106.389 168.42 106.913C168.524 107.436 168.186 107.946 167.659 108.061C167.549 108.086 167.44 108.108 167.333 108.129C165.703 108.528 163.816 109.952 162.72 111.199C162.382 111.584 161.887 112.659 161.382 113.345C161.009 113.851 160.591 114.184 160.24 114.303C160.004 114.382 159.805 114.369 159.642 114.33C159.403 114.271 159.205 114.144 159.053 113.94C158.971 113.829 158.894 113.681 158.858 113.49C158.84 113.399 158.838 113.167 158.839 113.061C158.736 112.711 158.61 112.37 158.518 112.016C158.3 111.174 157.87 110.64 157.36 109.935C156.883 109.276 156.371 108.862 155.619 108.531C155.522 108.507 154.733 108.316 154.455 108.207C154.049 108.046 153.854 107.777 153.784 107.632C153.665 107.387 153.652 107.171 153.676 106.992C153.712 106.728 153.832 106.502 154.045 106.319C154.176 106.206 154.373 106.095 154.637 106.041C154.841 106 155.381 105.975 155.457 105.971ZM160.082 104.598C160.119 104.679 160.158 104.76 160.199 104.841C161.079 106.58 162.063 107.551 163.259 108.022L163.3 108.037C162.5 108.624 161.775 109.281 161.221 109.911C160.993 110.17 160.692 110.708 160.365 111.261C160.069 110.309 159.585 109.635 158.976 108.793C158.51 108.15 158.022 107.665 157.423 107.271C157.888 107.035 158.331 106.759 158.718 106.436C159.361 105.898 159.787 105.275 160.082 104.598Z" fill="#2E74FF"/>
<path d="M4.01817 47.0992C6.00165 47.0992 7.60958 45.509 7.60958 43.5474C7.60958 41.5858 6.00165 39.9957 4.01817 39.9957C2.03469 39.9957 0.426758 41.5858 0.426758 43.5474C0.426758 45.509 2.03469 47.0992 4.01817 47.0992Z" fill="#2E74FF"/>
<path d="M35.0742 11.717C35.1833 12.0937 35.5804 12.3104 35.9603 12.2L35.0742 11.717ZM35.0742 11.717L34.757 11.8102C33.8478 8.7071 32.061 6.28793 29.3167 4.53683M35.0742 11.717L34.757 11.8082C34.917 12.3633 35.4998 12.6771 36.0522 12.5172H36.0529C36.6026 12.3573 36.9277 11.7804 36.7632 11.2254C35.7092 7.63132 33.6258 4.81436 30.444 2.78308L29.3167 4.53683M29.3167 4.53683C28.8324 4.22692 28.6883 3.58198 29.0029 3.09696L29.3167 4.53683ZM29.3167 4.53683L29.0029 3.09696L29.3167 4.53683ZM29.0029 3.09696C29.3134 2.6126 29.9603 2.47383 30.444 2.78308L29.0029 3.09696Z" fill="#343643"/>
<path d="M68.6562 12.9064C67.8229 13.3267 67.1125 13.299 66.5449 13.0175C66.0037 12.7498 65.6086 12.239 65.368 11.6047C65.1388 10.9994 65.0476 10.2553 65.0376 9.5516C65.0291 8.92517 65.0859 8.30865 65.1804 7.81966C64.6366 7.27583 64.0445 6.78023 63.4141 6.33552C58.4125 2.80953 50.9971 4.06966 45.2271 9.45777C44.2656 10.3558 43.5308 11.7732 42.9724 13.5322C42.4161 15.286 42.0454 17.347 41.791 19.4998C41.1004 25.33 41.3528 31.7542 41.4718 34.7906C41.4896 35.2459 41.5048 35.6252 41.5128 35.9146C41.5207 36.1981 41.5108 36.4294 41.4949 36.6005C41.487 36.6857 41.4771 36.7591 41.4665 36.8179C41.4579 36.8661 41.444 36.9309 41.4209 36.9857C41.2266 37.443 40.8652 37.5692 40.6405 37.6115L40.6372 37.6122C40.32 37.6683 40.0557 37.6082 39.8423 37.4979L39.8403 37.4972C39.5495 37.3446 39.3183 37.0769 39.2145 36.6924L39.2139 36.6897C39.1583 36.4796 39.1484 36.2133 39.1544 35.9635V35.9602C39.1564 35.91 39.1603 35.8598 39.1636 35.8161C39.1643 35.8062 39.165 35.797 39.1656 35.7877C39.1689 35.7547 39.1709 35.7256 39.1729 35.6965C39.1749 35.6602 39.1755 35.6331 39.1749 35.6126C39.1742 35.5908 39.1716 35.5849 39.1729 35.5875C38.9806 34.9221 38.7546 34.2699 38.5246 33.6058C38.4909 33.5093 38.4572 33.4122 38.4235 33.3144V33.3137C37.5533 30.7769 36.4273 28.3961 35.1705 26.008C34.8328 25.367 34.4965 24.7227 34.1601 24.0785C30.4894 17.0516 26.7632 9.91702 20.8002 4.65116C20.37 4.2712 20.3264 3.61173 20.7123 3.18024C21.0949 2.75006 21.7537 2.71371 22.1859 3.09169L22.1865 3.09301C28.4178 8.59411 32.3119 16.0393 36.0771 23.2386C36.3923 23.8419 36.7068 24.4426 37.0213 25.0412C37.8209 26.5597 38.5722 28.0835 39.2443 29.649C39.2125 26.0959 39.3229 21.6983 39.9183 17.7329C40.2295 15.6626 40.6821 13.702 41.3119 12.019C41.9403 10.3393 42.7537 8.91459 43.7984 7.9386C50.2709 1.89433 58.7885 0.522524 64.6213 4.6353C65.1262 4.99147 65.6119 5.37737 66.0724 5.79102C69.2013 0.583313 75.5694 -1.45853 81.2059 1.10072C81.7326 1.33927 81.9639 1.95777 81.7247 2.48045L81.724 2.48244C81.4815 3.0038 80.8643 3.23376 80.339 2.99587C75.5139 0.804681 70.0557 2.70115 67.5837 7.36041C68.0938 7.97626 68.5544 8.63574 68.9515 9.33486C69.1465 9.67781 69.5073 10.4331 69.5647 11.1098C69.6302 11.8505 69.3724 12.5437 68.6562 12.9064ZM67.3233 10.8686C67.3623 10.9703 67.3921 11.0404 67.4238 11.0926C67.437 11.1144 67.4482 11.1282 67.4568 11.1375C67.4053 10.9208 67.3068 10.6954 67.2196 10.523C67.2487 10.6459 67.283 10.7622 67.3233 10.8686Z" fill="#343643"/>
<path d="M70.8883 22.0743H169.714C178.473 22.0743 185.573 29.1745 185.573 37.9333V52.7576C185.573 61.5164 178.473 68.6166 169.714 68.6166H70.8883C62.1295 68.6166 55.0293 61.5164 55.0293 52.7576V37.9333C55.0293 29.1745 62.1295 22.0743 70.8883 22.0743Z" fill="#343643"/>
<path d="M111.969 38.0972H149.886C151.572 38.0972 152.938 39.4637 152.938 41.1494C152.938 42.8351 151.572 44.2016 149.886 44.2016H111.969C110.284 44.2016 108.917 42.8351 108.917 41.1494C108.917 39.4637 110.284 38.0972 111.969 38.0972Z" fill="#2E74FF"/>
<path d="M69.4663 47.2525H150.107C151.793 47.2525 153.16 48.619 153.16 50.3047C153.16 51.9904 151.793 53.3569 150.107 53.3569H69.4663C67.7806 53.3569 66.4141 51.9904 66.4141 50.3047C66.4141 48.619 67.7806 47.2525 69.4663 47.2525Z" fill="white"/>
<path d="M168.877 53.3562C173.068 53.3562 176.466 49.9404 176.466 45.7267C176.466 41.513 173.068 38.0972 168.877 38.0972C164.685 38.0972 161.287 41.513 161.287 45.7267C161.287 49.9404 164.685 53.3562 168.877 53.3562Z" fill="#00DF80"/>
<path d="M16.2858 60.9864H115.111C123.87 60.9864 130.97 68.0866 130.97 76.8454V91.6697C130.97 100.428 123.87 107.529 115.111 107.529H16.2858C7.52698 107.529 0.426758 100.428 0.426758 91.6697V76.8454C0.426758 68.0866 7.52698 60.9864 16.2858 60.9864Z" fill="#2E74FF"/>
<path d="M36.1152 77.0086H74.0322C75.7178 77.0086 77.0843 78.3752 77.0843 80.0608C77.0843 81.7465 75.7178 83.113 74.0322 83.113H36.1152C34.4295 83.113 33.063 81.7465 33.063 80.0608C33.063 78.3752 34.4295 77.0086 36.1152 77.0086Z" fill="#343643"/>
<path d="M36.1152 86.1646H116.756C118.442 86.1646 119.809 87.5311 119.809 89.2168C119.809 90.9025 118.442 92.269 116.756 92.269H36.1152C34.4295 92.269 33.063 90.9025 33.063 89.2168C33.063 87.5311 34.4295 86.1646 36.1152 86.1646Z" fill="white"/>
<path d="M19.4009 92.269C23.5927 92.269 26.9908 88.8528 26.9908 84.6388C26.9908 80.4248 23.5927 77.0086 19.4009 77.0086C15.2091 77.0086 11.811 80.4248 11.811 84.6388C11.811 88.8528 15.2091 92.269 19.4009 92.269Z" fill="#FF3F60"/>
</svg>
